# xmcd
#
# Track frame offsets: 
#        182
#        12472
#        25117
#        35692
#        48590
#        59062
#        69075
#        81545
#        92745
#        104075
#        115505
#        127812
#        138252
#        147637
#        165810
#        178917
#        189695
#        202847
#        215125
#        225585
#        237397
#        249172
#        259545
#        274665
#        286137
#
# Disc length: 3966 seconds
#
# Revision: 15
# Processed by: cddbd v1.5.2PL0 Copyright (c) Steve Scherf et al.
# Submitted via: ExactAudioCopyFreeDBPlugin 1.0
#
DISCID=6a0f7c19
DTITLE=Various Artist - The Doo Wop Boxes I, II, and III [Rhino box set
DTITLE=s]
DYEAR=1993
DGENRE=Rhythm and Blues
TTITLE0=The Pastels - Been So Long
TTITLE1=The Silhouettes - Get a Job
TTITLE2=The Monotones - Book of Love
TTITLE3=The Chantels - Maybe
TTITLE4=Dion and The Belmonts - I Wonder Why
TTITLE5=The Danleers - One Summer Night
TTITLE6=Jerry Butler and The Impressions - For Your Precious Love
TTITLE7=The Shields - You Cheated
TTITLE8=The Students - I'm So Young
TTITLE9=The Students - Everyday of the Week
TTITLE10=The Elegants - Little Star
TTITLE11=The Imperials - Tears on My Pillow
TTITLE12=The Videos - Trickle, Trickle
TTITLE13=Harvey and The Moonglows - Ten Commandments of Love
TTITLE14=The Crests - 16 Candles
TTITLE15=The Fiestas - So Fine
TTITLE16=The Flamingos - Lovers Never Say Goodbye
TTITLE17=The Skyliners - Since I Don't Have You
TTITLE18=Norman Fox and The Rob Roys - Pizza Pie
TTITLE19=The Impalas - Sorry (I Ran All the Way Home)
TTITLE20=Dion and The Belmonts - A Teenager in Love
TTITLE21=The Genies - Who's That Knocking
TTITLE22=The Flamingos - I Only Have Eyes for You
TTITLE23=The Mystics - Hushabye
TTITLE24=The Eternals - Rockin' in the Jungle
EXTD=
EXTT0=
EXTT1=
EXTT2=
EXTT3=
EXTT4=
EXTT5=
EXTT6=
EXTT7=
EXTT8=
EXTT9=
EXTT10=
EXTT11=
EXTT12=
EXTT13=
EXTT14=
EXTT15=
EXTT16=
EXTT17=
EXTT18=
EXTT19=
EXTT20=
EXTT21=
EXTT22=
EXTT23=
EXTT24=
PLAYORDER=
